<?xml version="1.0" encoding="utf-8"?>
<!-- Generator: Adobe Illustrator 27.7.0, SVG Export Plug-In . SVG Version: 6.00 Build 0)  -->
<svg version="1.1" id="Layer_1" xmlns="http://www.w3.org/2000/svg" xmlns:xlink="http://www.w3.org/1999/xlink" x="0px" y="0px"
	 viewBox="0 0 90.7 19.1" style="enable-background:new 0 0 90.7 19.1;" xml:space="preserve">
<style type="text/css">
	.st0{display:none;}
	.st1{display:inline;fill:#FFFFFF;}
	.st2{display:inline;}
	.st3{fill:#FFFFFF;}
	.st4{fill-rule:evenodd;clip-rule:evenodd;fill:#FFFFFF;}
</style>
<g class="st0">
	<path class="st1" d="M25,12.1v7h-4.4v-19h6.2c1.4,0,2.5,0.1,3.5,0.4s1.8,0.7,2.4,1.2c0.6,0.5,1.1,1.1,1.3,1.8
		c0.3,0.7,0.4,1.4,0.4,2.2c0,0.6-0.1,1.2-0.2,1.7C34,8,33.8,8.5,33.4,9c-0.3,0.5-0.7,0.9-1.2,1.2c-0.5,0.4-1,0.7-1.6,0.9
		c0.3,0.1,0.6,0.3,0.8,0.5c0.3,0.2,0.5,0.5,0.7,0.8l4,6.6h-4c-0.7,0-1.3-0.3-1.6-0.8l-3.1-5.5c-0.1-0.2-0.3-0.4-0.5-0.5
		S26.5,12,26.1,12L25,12.1L25,12.1z M25,9h1.8c0.6,0,1.1-0.1,1.5-0.2c0.4-0.2,0.8-0.4,1-0.6c0.3-0.3,0.5-0.6,0.6-0.9
		c0.1-0.4,0.2-0.7,0.2-1.2c0-0.8-0.3-1.5-0.8-2s-1.4-0.7-2.5-0.7H25V9z M37.9,19.1v-19h7c1.3,0,2.4,0.1,3.3,0.4
		c0.9,0.2,1.7,0.6,2.2,1c0.6,0.4,1,1,1.3,1.6s0.4,1.3,0.4,2.1c0,0.4-0.1,0.8-0.2,1.2c-0.1,0.4-0.3,0.8-0.6,1.1
		c-0.3,0.3-0.6,0.7-1,0.9c-0.4,0.3-0.9,0.5-1.5,0.7c1.2,0.3,2.2,0.8,2.8,1.5s0.9,1.6,0.9,2.6c0,0.8-0.2,1.6-0.5,2.2
		c-0.3,0.7-0.8,1.3-1.4,1.8c-0.6,0.5-1.3,0.9-2.2,1.2s-1.9,0.4-3,0.4h-7.5V19.1z M42.3,8.1h2.3c0.5,0,0.9,0,1.3-0.1s0.7-0.2,1-0.4
		c0.3-0.2,0.5-0.4,0.6-0.7c0.1-0.3,0.2-0.7,0.2-1.1c0-0.5-0.1-0.8-0.2-1.1S47.2,4.2,47,4c-0.2-0.2-0.5-0.3-0.9-0.4s-0.8-0.1-1.3-0.1
		h-2.6v4.6H42.3z M42.3,11v4.7h3.1c0.6,0,1.1-0.1,1.4-0.2s0.7-0.3,0.9-0.6c0.2-0.2,0.4-0.5,0.4-0.8c0.1-0.3,0.1-0.6,0.1-0.9
		c0-0.3,0-0.7-0.1-0.9c-0.1-0.3-0.2-0.5-0.5-0.7c-0.2-0.2-0.5-0.3-0.9-0.4c-0.4-0.1-0.8-0.2-1.4-0.2C45.3,11,42.3,11,42.3,11z
		 M72.6,19.1h-3.4c-0.4,0-0.7-0.1-0.9-0.3s-0.4-0.4-0.5-0.7l-1.1-3.3h-7.2l-1.1,3.3c-0.1,0.2-0.3,0.5-0.5,0.7
		c-0.3,0.2-0.6,0.3-0.9,0.3h-3.4l7.3-18.9h4.5L72.6,19.1z M60.4,11.8h5.2l-1.7-5.2c-0.1-0.3-0.2-0.7-0.4-1.2C63.3,5,63.2,4.5,63,4
		c-0.1,0.5-0.3,1-0.4,1.5c-0.1,0.5-0.3,0.8-0.4,1.2C62.2,6.7,60.4,11.8,60.4,11.8z M76.9,0.1c0.1,0,0.2,0,0.4,0.1
		c0.1,0,0.2,0.1,0.3,0.2s0.2,0.2,0.3,0.4l9,11.4c0-0.4-0.1-0.7-0.1-1.1v-11h3.9V19h-2.3c-0.3,0-0.6-0.1-0.9-0.2
		c-0.2-0.1-0.5-0.3-0.7-0.6L77.9,7.1c0,0.3,0,0.7,0.1,1v11.1h-3.9V0.1H76.9z"/>
	<g class="st2">
		<path class="st3" d="M6,9.1v-6l-3-3l-3,3v16h12v-10H6z M4,17.1H2v-2h2V17.1z M4,13.1H2v-2h2V13.1z M4,9.1H2v-2h2V9.1z M4,5.1H2v-2
			h2V5.1z M10,17.1H8v-2h2V17.1z M10,13.1H8v-2h2V13.1z"/>
		<path class="st3" d="M6,9v10h12V0h-6v9H6z M14,15h2v2h-2V15z M14,11h2v2h-2V11z M14,7h2v2h-2V7z M14,3h2v2h-2V3z M8,15h2v2H8V15z
			 M8,11h2v2H8V11z"/>
	</g>
</g>
<g id="Layer_1_00000141436242427949504460000003994745656844576925_">
	<path class="st4" d="M9,3.5c-4.3,0-7.8,3.5-7.8,7.8s3.5,7.8,7.8,7.8c4.3,0,7.8-3.5,7.8-7.8S13.3,3.5,9,3.5z M9.8,4.5
		c3.7,0.3,5.9,2.9,5.9,6.5s-2.5-2.1-5.6,0.8c-2.1,1.9-5.5,2.3-6.2-0.6C3.2,8,6.1,4.2,9.8,4.5z"/>
	<path class="st4" d="M0,0.4l2.3,6.6c0.5-0.7,1-1.2,1.5-1.8L0.8,0.7c2.1-0.1,4.6,2.7,4.6,2.7s-0.9,0.4-1.8,1l0.5,0.6
		C5,4.4,5.9,4,6.7,3.8c0,0-3.4-3.8-6.3-3.7C0.4,0.1,0,0.1,0,0.4z"/>
	<path class="st4" d="M18.1,0.5l-2.4,6.6c-0.2-0.4-0.5-0.6-0.5-0.6l2.2-5.7l-3.1,2.7c0,0,0.9,0.4,1.3,0.9l-0.7,1.8
		c-0.8-1-2.2-1.9-3.3-2.2L17.7,0C17.7,0,18.2-0.1,18.1,0.5z"/>
</g>
<g id="Layer_2_00000120538220497142182940000007631161162899320976_">
	<path class="st4" d="M13.5,10C13.5,10,13.5,10,13.5,10C13.5,10,13.5,9.9,13.5,10l-0.1-1.4L13,8.7c0,0,0,0-0.1,0c0,0,0,0,0,0
		l0.1-1.5c0,0,0,0,0-0.1l0.5-0.2c0,0,0,0,0.1,0c0,0,0,0,0,0.1l-0.1,1.1L14,7.9c0,0,0,0,0.1,0c0,0,0,0,0,0.1L13.5,10
		C13.6,9.9,13.6,10,13.5,10z"/>
	<path class="st4" d="M8.9,9.9C8.9,9.9,8.9,9.9,8.9,9.9C8.9,9.9,8.9,9.9,8.9,9.9L8.5,8.6l0.4,0c0,0,0,0,0,0c0,0,0,0,0-0.1L8.4,7.1
		c0,0,0,0-0.1,0l-0.5,0c0,0,0,0,0,0c0,0,0,0,0,0.1l0.4,1l-0.4,0c0,0,0,0-0.1,0c0,0,0,0,0,0.1L8.9,9.9C8.8,9.9,8.8,9.9,8.9,9.9z"/>
</g>
</svg>
